<?xml version="1.0" encoding="UTF-8" standalone="no"?>
<!DOCTYPE svg PUBLIC "-//W3C//DTD SVG 1.1//EN"
 "http://www.w3.org/Graphics/SVG/1.1/DTD/svg11.dtd">
<!-- Generated by graphviz version 2.36.0 (20140111.2315)
 -->
<!-- Title: Graph Pages: 1 -->
<svg width="388pt" height="332pt"
 viewBox="0.00 0.00 388.00 332.00" xmlns="http://www.w3.org/2000/svg" xmlns:xlink="http://www.w3.org/1999/xlink">
<g id="graph0" class="graph" transform="scale(1 1) rotate(0) translate(4 328)">
<title>Graph</title>
<polygon fill="white" stroke="none" points="-4,4 -4,-328 384,-328 384,4 -4,4"/>
<!-- 1 -->
<g id="node1" class="node"><title>1</title>
<ellipse fill="none" stroke="black" cx="154" cy="-18" rx="27" ry="18"/>
<text text-anchor="middle" x="154" y="-14.3" font-family="Times,serif" font-size="14.00">1</text>
</g>
<!-- 2 -->
<g id="node2" class="node"><title>2</title>
<ellipse fill="none" stroke="black" cx="27" cy="-162" rx="27" ry="18"/>
<text text-anchor="middle" x="27" y="-158.3" font-family="Times,serif" font-size="14.00">2</text>
</g>
<!-- 4 -->
<g id="node4" class="node"><title>4</title>
<ellipse fill="none" stroke="black" cx="27" cy="-90" rx="27" ry="18"/>
<text text-anchor="middle" x="27" y="-86.3" font-family="Times,serif" font-size="14.00">4</text>
</g>
<!-- 2&#45;&gt;4 -->
<g id="edge1" class="edge"><title>2&#45;&gt;4</title>
<path fill="none" stroke="black" d="M27,-143.697C27,-135.983 27,-126.712 27,-118.112"/>
<polygon fill="black" stroke="black" points="30.5001,-118.104 27,-108.104 23.5001,-118.104 30.5001,-118.104"/>
</g>
<!-- 3 -->
<g id="node3" class="node"><title>3</title>
<ellipse fill="none" stroke="black" cx="99" cy="-162" rx="27" ry="18"/>
<text text-anchor="middle" x="99" y="-158.3" font-family="Times,serif" font-size="14.00">3</text>
</g>
<!-- 3&#45;&gt;4 -->
<g id="edge2" class="edge"><title>3&#45;&gt;4</title>
<path fill="none" stroke="black" d="M84.4297,-146.834C74.2501,-136.938 60.4761,-123.546 48.9694,-112.359"/>
<polygon fill="black" stroke="black" points="51.4055,-109.846 41.7957,-105.385 46.5259,-114.865 51.4055,-109.846"/>
</g>
<!-- 6 -->
<g id="node6" class="node"><title>6</title>
<ellipse fill="none" stroke="black" cx="99" cy="-90" rx="27" ry="18"/>
<text text-anchor="middle" x="99" y="-86.3" font-family="Times,serif" font-size="14.00">6</text>
</g>
<!-- 3&#45;&gt;6 -->
<g id="edge3" class="edge"><title>3&#45;&gt;6</title>
<path fill="none" stroke="black" d="M99,-143.697C99,-135.983 99,-126.712 99,-118.112"/>
<polygon fill="black" stroke="black" points="102.5,-118.104 99,-108.104 95.5001,-118.104 102.5,-118.104"/>
</g>
<!-- 5 -->
<g id="node5" class="node"><title>5</title>
<ellipse fill="none" stroke="black" cx="171" cy="-234" rx="27" ry="18"/>
<text text-anchor="middle" x="171" y="-230.3" font-family="Times,serif" font-size="14.00">5</text>
</g>
<!-- 13 -->
<g id="node13" class="node"><title>13</title>
<ellipse fill="none" stroke="black" cx="171" cy="-162" rx="27" ry="18"/>
<text text-anchor="middle" x="171" y="-158.3" font-family="Times,serif" font-size="14.00">13</text>
</g>
<!-- 5&#45;&gt;13 -->
<g id="edge4" class="edge"><title>5&#45;&gt;13</title>
<path fill="none" stroke="black" d="M171,-215.697C171,-207.983 171,-198.712 171,-190.112"/>
<polygon fill="black" stroke="black" points="174.5,-190.104 171,-180.104 167.5,-190.104 174.5,-190.104"/>
</g>
<!-- 6&#45;&gt;1 -->
<g id="edge5" class="edge"><title>6&#45;&gt;1</title>
<path fill="none" stroke="black" d="M110.934,-73.811C118.214,-64.5464 127.663,-52.5203 135.854,-42.0944"/>
<polygon fill="black" stroke="black" points="138.663,-44.1849 142.089,-34.1593 133.159,-39.8601 138.663,-44.1849"/>
</g>
<!-- 11 -->
<g id="node11" class="node"><title>11</title>
<ellipse fill="none" stroke="black" cx="82" cy="-18" rx="27" ry="18"/>
<text text-anchor="middle" x="82" y="-14.3" font-family="Times,serif" font-size="14.00">11</text>
</g>
<!-- 6&#45;&gt;11 -->
<g id="edge6" class="edge"><title>6&#45;&gt;11</title>
<path fill="none" stroke="black" d="M94.8848,-72.055C92.9919,-64.2609 90.6996,-54.8219 88.5763,-46.0789"/>
<polygon fill="black" stroke="black" points="91.9566,-45.1668 86.1954,-36.2753 85.1543,-46.8189 91.9566,-45.1668"/>
</g>
<!-- 7 -->
<g id="node7" class="node"><title>7</title>
<ellipse fill="none" stroke="black" cx="226" cy="-306" rx="27" ry="18"/>
<text text-anchor="middle" x="226" y="-302.3" font-family="Times,serif" font-size="14.00">7</text>
</g>
<!-- 7&#45;&gt;5 -->
<g id="edge7" class="edge"><title>7&#45;&gt;5</title>
<path fill="none" stroke="black" d="M214.066,-289.811C206.786,-280.546 197.337,-268.52 189.146,-258.094"/>
<polygon fill="black" stroke="black" points="191.841,-255.86 182.911,-250.159 186.337,-260.185 191.841,-255.86"/>
</g>
<!-- 7&#45;&gt;7 -->
<g id="edge8" class="edge"><title>7&#45;&gt;7</title>
<path fill="none" stroke="black" d="M245.895,-318.432C258.688,-321.675 271,-317.531 271,-306 271,-297.622 264.501,-293.143 256.039,-292.564"/>
<polygon fill="black" stroke="black" points="255.502,-289.1 245.895,-293.568 256.191,-296.066 255.502,-289.1"/>
</g>
<!-- 12 -->
<g id="node12" class="node"><title>12</title>
<ellipse fill="none" stroke="black" cx="281" cy="-90" rx="27" ry="18"/>
<text text-anchor="middle" x="281" y="-86.3" font-family="Times,serif" font-size="14.00">12</text>
</g>
<!-- 7&#45;&gt;12 -->
<g id="edge9" class="edge"><title>7&#45;&gt;12</title>
<path fill="none" stroke="black" d="M225.402,-287.93C224.912,-257.842 226.407,-193.84 245,-144 248.907,-133.526 255.295,-123.108 261.613,-114.315"/>
<polygon fill="black" stroke="black" points="264.57,-116.209 267.814,-106.123 258.988,-111.984 264.57,-116.209"/>
</g>
<!-- 14 -->
<g id="node14" class="node"><title>14</title>
<ellipse fill="none" stroke="black" cx="281" cy="-234" rx="27" ry="18"/>
<text text-anchor="middle" x="281" y="-230.3" font-family="Times,serif" font-size="14.00">14</text>
</g>
<!-- 7&#45;&gt;14 -->
<g id="edge10" class="edge"><title>7&#45;&gt;14</title>
<path fill="none" stroke="black" d="M237.934,-289.811C245.214,-280.546 254.663,-268.52 262.854,-258.094"/>
<polygon fill="black" stroke="black" points="265.663,-260.185 269.089,-250.159 260.159,-255.86 265.663,-260.185"/>
</g>
<!-- 8 -->
<g id="node8" class="node"><title>8</title>
<ellipse fill="none" stroke="black" cx="281" cy="-18" rx="27" ry="18"/>
<text text-anchor="middle" x="281" y="-14.3" font-family="Times,serif" font-size="14.00">8</text>
</g>
<!-- 8&#45;&gt;12 -->
<g id="edge11" class="edge"><title>8&#45;&gt;12</title>
<path fill="none" stroke="black" d="M286.879,-35.9562C287.714,-43.8272 287.948,-53.3739 287.583,-62.1869"/>
<polygon fill="black" stroke="black" points="284.074,-62.1835 286.84,-72.411 291.056,-62.6911 284.074,-62.1835"/>
</g>
<!-- 9 -->
<g id="node9" class="node"><title>9</title>
<ellipse fill="none" stroke="black" cx="209" cy="-90" rx="27" ry="18"/>
<text text-anchor="middle" x="209" y="-86.3" font-family="Times,serif" font-size="14.00">9</text>
</g>
<!-- 9&#45;&gt;8 -->
<g id="edge12" class="edge"><title>9&#45;&gt;8</title>
<path fill="none" stroke="black" d="M223.57,-74.8345C233.75,-64.9376 247.524,-51.5462 259.031,-40.3591"/>
<polygon fill="black" stroke="black" points="261.474,-42.865 266.204,-33.3847 256.595,-37.8461 261.474,-42.865"/>
</g>
<!-- 10 -->
<g id="node10" class="node"><title>10</title>
<ellipse fill="none" stroke="black" cx="281" cy="-162" rx="27" ry="18"/>
<text text-anchor="middle" x="281" y="-158.3" font-family="Times,serif" font-size="14.00">10</text>
</g>
<!-- 10&#45;&gt;12 -->
<g id="edge13" class="edge"><title>10&#45;&gt;12</title>
<path fill="none" stroke="black" d="M281,-143.697C281,-135.983 281,-126.712 281,-118.112"/>
<polygon fill="black" stroke="black" points="284.5,-118.104 281,-108.104 277.5,-118.104 284.5,-118.104"/>
</g>
<!-- 12&#45;&gt;8 -->
<g id="edge14" class="edge"><title>12&#45;&gt;8</title>
<path fill="none" stroke="black" d="M275.16,-72.411C274.297,-64.507 274.048,-54.8518 274.412,-45.9352"/>
<polygon fill="black" stroke="black" points="277.903,-46.1791 275.121,-35.9562 270.921,-45.6831 277.903,-46.1791"/>
</g>
<!-- 13&#45;&gt;1 -->
<g id="edge15" class="edge"><title>13&#45;&gt;1</title>
<path fill="none" stroke="black" d="M168.949,-143.871C166.052,-119.67 160.729,-75.2108 157.279,-46.3932"/>
<polygon fill="black" stroke="black" points="160.722,-45.7023 156.058,-36.1893 153.771,-46.5344 160.722,-45.7023"/>
</g>
<!-- 13&#45;&gt;6 -->
<g id="edge16" class="edge"><title>13&#45;&gt;6</title>
<path fill="none" stroke="black" d="M156.43,-146.834C146.25,-136.938 132.476,-123.546 120.969,-112.359"/>
<polygon fill="black" stroke="black" points="123.405,-109.846 113.796,-105.385 118.526,-114.865 123.405,-109.846"/>
</g>
<!-- 13&#45;&gt;12 -->
<g id="edge17" class="edge"><title>13&#45;&gt;12</title>
<path fill="none" stroke="black" d="M190.161,-148.807C207.669,-137.665 233.759,-121.062 253.493,-108.504"/>
<polygon fill="black" stroke="black" points="255.501,-111.375 262.059,-103.053 251.743,-105.469 255.501,-111.375"/>
</g>
<!-- 14&#45;&gt;14 -->
<g id="edge18" class="edge"><title>14&#45;&gt;14</title>
<path fill="none" stroke="black" d="M300.895,-246.432C313.688,-249.675 326,-245.531 326,-234 326,-225.622 319.501,-221.143 311.039,-220.564"/>
<polygon fill="black" stroke="black" points="310.502,-217.1 300.895,-221.568 311.191,-224.066 310.502,-217.1"/>
</g>
<!-- 15 -->
<g id="node15" class="node"><title>15</title>
<ellipse fill="none" stroke="black" cx="353" cy="-162" rx="27" ry="18"/>
<text text-anchor="middle" x="353" y="-158.3" font-family="Times,serif" font-size="14.00">15</text>
</g>
<!-- 15&#45;&gt;12 -->
<g id="edge19" class="edge"><title>15&#45;&gt;12</title>
<path fill="none" stroke="black" d="M338.43,-146.834C328.25,-136.938 314.476,-123.546 302.969,-112.359"/>
<polygon fill="black" stroke="black" points="305.405,-109.846 295.796,-105.385 300.526,-114.865 305.405,-109.846"/>
</g>
</g>
</svg>
